<svg xmlns="http://www.w3.org/2000/svg" width="95.69" height="80" viewBox="0 0 95.69 80">
  <g id="logo_joyn" transform="translate(14 78)">
    <circle id="Ellipse_22" data-name="Ellipse 22" cx="4.019" cy="4.019" r="4.019" transform="translate(29.943 -78)" fill="#01b14f"/>
    <rect id="Rectangle_93" data-name="Rectangle 93" width="7.512" height="2.642" rx="0.5" transform="translate(36.999 -32.901)" fill="#01b14f"/>
    <rect id="Rectangle_94" data-name="Rectangle 94" width="9.145" height="2.626" rx="0.497" transform="translate(47.15 -44.493)" fill="#01b14f"/>
    <rect id="Rectangle_95" data-name="Rectangle 95" width="10.442" height="2.706" rx="0.512" transform="translate(48.02 -61.865)" fill="#01b14f"/>
    <path id="Path_60" data-name="Path 60" d="M45.443,3.962H20.294l-1.115,6.574h9.76L25.778,28.57C23.662,38.34,13.732,36.2,15.665,29.7L9.409,27.694C7.658,33.812,10.02,41.68,20.294,41.68H32.831a1.325,1.325,0,0,0,1.321-1.321h0a1.325,1.325,0,0,0-1.321-1.321H31.571A1.571,1.571,0,0,1,30,37.472h0a1.571,1.571,0,0,1,1.566-1.566H48.523A1.412,1.412,0,0,0,49.931,34.5h0a1.412,1.412,0,0,0-1.408-1.409H30.875a1.571,1.571,0,0,1-1.566-1.566h0a1.571,1.571,0,0,1,1.566-1.566H43.954a1.317,1.317,0,0,0,1.313-1.313h0a1.317,1.317,0,0,0-1.313-1.313H32.9a1.571,1.571,0,0,1-1.566-1.566h0A1.571,1.571,0,0,1,32.9,24.2h9.079a1.349,1.349,0,0,0,1.345-1.345h0a1.349,1.349,0,0,0-1.345-1.345H36.76a1.571,1.571,0,0,1-1.566-1.566h0a1.571,1.571,0,0,1,1.566-1.566h12.1A1.38,1.38,0,0,0,50.237,17h0a1.38,1.38,0,0,0-1.376-1.377H34.672a1.571,1.571,0,0,1-1.566-1.566h0a1.571,1.571,0,0,1,1.566-1.566h9.4a1.357,1.357,0,0,0,1.353-1.353h0a1.357,1.357,0,0,0-1.353-1.353H35.147A1.571,1.571,0,0,1,33.58,8.218h0a1.571,1.571,0,0,1,1.566-1.566h10.3a1.349,1.349,0,0,0,1.345-1.345h0a1.349,1.349,0,0,0-1.345-1.345Z" transform="translate(0.599 -71.592)" fill="#01b14f" fill-rule="evenodd"/>
    <path id="Path_61" data-name="Path 61" d="M0,46.657H8.765A10.321,10.321,0,0,0,19.082,36.531V20.615H12.576V36.177A3.986,3.986,0,0,1,8.6,40.151H0v6.506Z" transform="translate(-14 -44.657)" fill="#01b14f" fill-rule="evenodd"/>
    <path id="Path_62" data-name="Path 62" d="M21.191,20.615A13.021,13.021,0,1,1,8.17,33.636,13.021,13.021,0,0,1,21.191,20.615Zm0,6.125a6.9,6.9,0,1,1-6.9,6.9A6.9,6.9,0,0,1,21.191,26.74Z" transform="translate(-0.571 -44.657)" fill="#01b14f" fill-rule="evenodd"/>
    <path id="Path_63" data-name="Path 63" d="M35.4,20.651,29.88,31.029,25.428,20.651H18.4l7.587,17.7c-1.952,1.952-2.85,1.835-7.628,1.835v6.376c8.144,0,10.634-1.116,14.169-6.967L42.786,20.651H35.4Z" transform="translate(16.179 -44.599)" fill="#01b14f" fill-rule="evenodd"/>
    <path id="Path_64" data-name="Path 64" d="M51.462,46.566V31.915A11.3,11.3,0,0,0,40.2,20.651H38.172A11.3,11.3,0,0,0,26.907,31.915V46.566h6.329V32.123a5.474,5.474,0,0,1,5.458-5.458h.981a5.474,5.474,0,0,1,5.458,5.458V46.566h6.329Z" transform="translate(30.227 -44.599)" fill="#01b14f" fill-rule="evenodd"/>
  </g>
</svg>
