<?xml version="1.0" encoding="UTF-8"?>
<!DOCTYPE svg PUBLIC "-//W3C//DTD SVG 1.1//EN" "http://www.w3.org/Graphics/SVG/1.1/DTD/svg11.dtd">
<!-- Creator: CorelDRAW -->
<svg xmlns="http://www.w3.org/2000/svg" xml:space="preserve" width="141px" height="57px" style="shape-rendering:geometricPrecision; text-rendering:geometricPrecision; image-rendering:optimizeQuality; fill-rule:evenodd; clip-rule:evenodd"
viewBox="0 0 32.8435 13.3694"
 xmlns:xlink="http://www.w3.org/1999/xlink">
 <defs>
  <style type="text/css">
   <![CDATA[
    .fil0 {fill:none}
    .fil1 {fill:#15A430}
   ]]>
  </style>
 </defs>
 <g id="Layer_x0020_1">
  <metadata id="CorelCorpID_0Corel-Layer"/>
  <g id="_526568112">
   <rect id="_526572216" class="fil0" x="-1.38526e-005" y="4.48808e-005" width="32.8435" height="13.3695" rx="0.942779" ry="0.942779"/>
   <path id="_526570968" class="fil1" d="M10.3928 4.00702c-1.79686,0 -4.82072,0 -6.61758,0l-0.238647 1.40881 2.09153 0 -0.677219 3.86531c-0.453676,2.09372 -2.582,1.63428 -2.16732,0.242217l-1.34098 -0.430059c-0.375409,1.31105 0.130995,2.99751 2.33264,2.99751l2.87063 0 1.04384 0c0.155711,0 0.283136,-0.127425 0.283136,-0.283136l0 0c0,-0.155711 -0.127425,-0.283136 -0.283136,-0.283136l-0.270229 0c-0.184821,0 -0.335589,-0.151042 -0.335589,-0.335589l0 0c0,-0.184821 0.150768,-0.335589 0.335589,-0.335589l1.51619 0 1.45056 0c-0.182349,-0.184546 -0.346574,-0.386669 -0.490476,-0.60362l-0.96008 0 -1.66531 0c-0.184821,0 -0.335863,-0.151042 -0.335863,-0.335589l0 0c0,-0.184821 0.151042,-0.335863 0.335863,-0.335863l1.40607 0 0.860667 0c-0.0755212,-0.181251 -0.138135,-0.369093 -0.186743,-0.562702l-0.673924 0 -0.972164 0c-0.184546,0 -0.335863,-0.151317 -0.335863,-0.335863l0 0c0,-0.184821 0.151317,-0.335863 0.335863,-0.335863l1.53734 0c-0.00768943,-0.101061 -0.0118088,-0.203495 -0.0118088,-0.306479 0,-0.0906254 0.00329547,-0.180702 0.00933717,-0.269954l-0.707428 0c-0.184821,0 -0.335863,-0.151042 -0.335863,-0.335589l0 0c0,-0.184821 0.151042,-0.335589 0.335863,-0.335589l0.809587 0c0.0488828,-0.203221 0.113144,-0.4004 0.191687,-0.590164l-1.44891 0c-0.184821,0 -0.335589,-0.151042 -0.335589,-0.335589l0 0c0,-0.184546 0.150768,-0.335863 0.335589,-0.335863l1.80537 0c0.136762,-0.207615 0.292473,-0.401773 0.464387,-0.580003l-2.16787 0c-0.184821,0 -0.335589,-0.150768 -0.335589,-0.335314l0 0c0,-0.184821 0.150768,-0.335863 0.335589,-0.335863 0.735714,0 1.47115,0 2.20687,0 0.158457,0 0.288354,-0.129896 0.288354,-0.288354l0 0c0,-0.158457 -0.129896,-0.288079 -0.288354,-0.288079zm1.3668 5.00857l-0.399301 0c0.109849,0.210361 0.2543,0.400125 0.42539,0.561603 0.142804,-0.0134565 0.255124,-0.134016 0.255124,-0.280115l0 -0.000274623c0,-0.154887 -0.126876,-0.281213 -0.281213,-0.281213zm-1.97838 2.50895l-1.04411 0c-0.155711,0 -0.282861,0.12715 -0.282861,0.283136l0 0c0,0.155986 0.12715,0.283136 0.282861,0.283136l1.04411 0c0.155986,0 0.283136,-0.12715 0.283136,-0.283136l0 0c0,-0.155986 -0.12715,-0.283136 -0.283136,-0.283136z"/>
   <path id="_526570728" class="fil1" d="M13.2376 4.02322c2.21703,0 4.01416,1.79713 4.01416,4.01416 0,2.21675 -1.79713,4.01388 -4.01416,4.01388 -1.11964,0 -2.13217,-0.45862 -2.86019,-1.1979l0.675297 0c0.165323,0 0.30181,-0.135664 0.30181,-0.302085l0 0c0,-0.165872 -0.135938,-0.301536 -0.30181,-0.301536l-1.1644 0c-0.139508,-0.210635 -0.259793,-0.435277 -0.358108,-0.671452l0.543203 0c0.154338,0 0.281488,-0.126601 0.281488,-0.281488l0 0c0,-0.154612 -0.126601,-0.281213 -0.281488,-0.281213l-0.729397 0 0.0115341 0.0453127c-0.0609662,-0.232056 -0.10161,-0.471252 -0.120285,-0.717039l0.963925 0c0.158732,0 0.288354,-0.129347 0.288354,-0.288079l0 0c0,-0.158457 -0.129622,-0.288354 -0.288354,-0.288354l-0.966122 0 -0.00219698 0.0335039c0.0159281,-0.271602 0.05822,-0.535789 0.125503,-0.790089l-0.0214206 0.0854076 1.44671 0c0.474548,0.00109849 0.495144,-0.590164 -0.014555,-0.590164l-1.24074 0c0.0972164,-0.235901 0.216952,-0.460817 0.355362,-0.671452l0.491849 0c0.159281,0 0.289727,-0.130171 0.289727,-0.289727l0 0c0,-0.159556 -0.130171,-0.290276 -0.289727,-0.290276l-0.0288354 0 -0.0159281 0.016752c0.729123,-0.769492 1.76088,-1.24816 2.9088,-1.24816zm-4.01388 4.01883l-0.000274623 -0.00466858 0.000274623 -0.000274623 0 0.00494321zm3.54098 -2.78742l-1.38382 0c-0.159006,0 -0.289727,0.130995 -0.289727,0.290001l0 0.000274623c0,0.159006 0.130171,0.289727 0.289727,0.289727l1.38382 0c0.159556,0 0.290001,-0.130171 0.290001,-0.289727l0 -0.000274623c0,-0.159556 -0.130995,-0.290001 -0.290001,-0.290001zm0.4729 0.656622c1.17401,0 2.12585,0.951842 2.12585,2.12613 0,1.17401 -0.951842,2.12585 -2.12585,2.12585 -0.567645,0 -1.08366,-0.222719 -1.46456,-0.585221l-0.000274623 0 -0.548696 0.000274623 -0.143353 0 -0.169442 0c-0.154887,0 -0.281213,-0.126876 -0.281213,-0.281213l0 -0.000274623c0,-0.118912 0.074972,-0.22162 0.180427,-0.262539l0.000549245 0.00109849c0.0153789,-0.00961179 0.0373487,-0.0164774 0.0675571,-0.0194982l0.471252 -0.000274623c-0.152141,-0.292748 -0.238098,-0.62559 -0.238098,-0.978205 0,-1.17429 0.951842,-2.12613 2.12585,-2.12613zm-1.69634 3.40752c-0.0716765,-0.0950194 -0.135938,-0.19608 -0.191137,-0.302634 0.0461366,0.0988641 0.110673,0.199925 0.191137,0.302634z"/>
   <path id="_526571376" class="fil1" d="M22.5462 4.06194l-1.70239 3.19963 -1.37256 -3.19963 -2.16622 0 2.33896 5.45785c-0.601973,0.601698 -0.878792,0.565722 -2.35159,0.565722l0 1.96547c2.5106,0 3.27817,-0.344102 4.36787,-2.14782l3.162 -5.84122 -2.27607 0z"/>
   <path id="_526571280" class="fil1" d="M31.6643 12.0782l0 -4.51644c0,-1.91 -1.5626,-3.4726 -3.4726,-3.4726l-0.624492 0c-1.91,0 -3.4726,1.5626 -3.4726,3.4726l0 4.51644 1.95092 0 0 -4.45273c0,-0.925203 0.757134,-1.68261 1.68261,-1.68261l0.302634 0c0.925478,0 1.68261,0.757409 1.68261,1.68261l0 4.45273 1.95092 0z"/>
   <path id="_526571424" class="fil1" d="M7.13414 0.813981c0.630259,0 1.14106,0.510523 1.14106,1.14051 0,0.629709 -0.510798,1.14023 -1.14106,1.14023 -0.629709,0 -1.14051,-0.510523 -1.14051,-1.14023 0,-0.629984 0.510798,-1.14051 1.14051,-1.14051z"/>
  </g>
 </g>
</svg>
