<?xml version="1.0" encoding="UTF-8"?>
<!DOCTYPE svg PUBLIC "-//W3C//DTD SVG 1.1//EN" "http://www.w3.org/Graphics/SVG/1.1/DTD/svg11.dtd">
<!-- Creator: CorelDRAW -->
<svg xmlns="http://www.w3.org/2000/svg" xml:space="preserve" width="204px" height="166px" style="shape-rendering:geometricPrecision; text-rendering:geometricPrecision; image-rendering:optimizeQuality; fill-rule:evenodd; clip-rule:evenodd"
viewBox="0 0 77.5229 62.8847"
 xmlns:xlink="http://www.w3.org/1999/xlink">
 <defs>
  <style type="text/css">
   <![CDATA[
    .fil0 {fill:none}
    .fil1 {fill:white}
   ]]>
  </style>
 </defs>
 <g id="Layer_x0020_1">
  <metadata id="CorelCorpID_0Corel-Layer"/>
  <g id="_531414872">
   <rect id="_533997032" class="fil0" x="-0.000219872" y="0.000779251" width="77.523" height="62.8848"/>
   <g>
    <circle id="_533998328" class="fil1" cx="38.3142" cy="5.66489" r="2.88323"/>
    <rect id="_533997896" class="fil1" x="40.4933" y="35.4628" width="5.38946" height="1.89543" rx="0.947654" ry="0.947654"/>
    <rect id="_533997848" class="fil1" x="47.7764" y="27.0627" width="6.56124" height="1.88431" rx="0.942273" ry="0.942273"/>
    <rect id="_533997824" class="fil1" x="48.4009" y="14.4738" width="7.49199" height="1.94121" rx="0.970527" ry="0.970527"/>
    <path id="_533997968" class="fil1" d="M46.9818 10.2964c-6.01467,0 -12.0293,0 -18.044,0l-0.800102 4.7163 7.00269 0 -2.26755 12.9393c-1.51858,7.00941 -8.64325,5.4711 -7.25563,0.810866l-4.48936 -1.43965c-1.25621,4.38935 0.439069,10.0349 7.80996,10.0349l5.50115 0 3.49417 0c0.521143,0 0.947654,-0.426512 0.947654,-0.947654l0 0c0,-0.521143 -0.426512,-0.947654 -0.947654,-0.947654l-0.9046 0c-0.618016,0 -1.12391,-0.505894 -1.12391,-1.12391l0 0c0,-0.618016 0.505894,-1.12391 1.12391,-1.12391l5.07643 0 7.08611 0c0.555676,0 1.01044,-0.454318 1.01044,-1.00999l0 0c0,-0.555676 -0.454767,-1.01044 -1.01044,-1.01044l-7.08611 0 -5.57605 0c-0.618016,0 -1.12391,-0.505446 -1.12391,-1.12391l0 0c0,-0.618016 0.505894,-1.12346 1.12391,-1.12346l4.70733 0 4.67683 0c0.518452,0 0.942273,-0.424269 0.942273,-0.942273l0 0c0,-0.518452 -0.423821,-0.942273 -0.942273,-0.942273l-4.67683 0 -3.25423 0c-0.618016,0 -1.12391,-0.505446 -1.12391,-1.12391l0 0c0,-0.618016 0.505894,-1.12346 1.12391,-1.12346 2.17158,0 4.34271,0 6.51383,0 0.531009,0 0.965145,-0.434585 0.965145,-0.965145l0 0c0,-0.530561 -0.434136,-0.964697 -0.965145,-0.964697 -1.24769,0 -2.49583,0 -3.74398,0 -0.618016,0 -1.12391,-0.505894 -1.12391,-1.12391l0 0c0,-0.618016 0.505894,-1.12391 1.12391,-1.12391 2.89409,0 5.78818,0 8.68227,0 0.543119,0 0.987121,-0.444451 0.987121,-0.98757l0 0c0,-0.543119 -0.444003,-0.98757 -0.987121,-0.98757 -3.39371,0 -6.78741,0 -10.1807,0 -0.618016,0 -1.12391,-0.505446 -1.12391,-1.12391l0 0c0,-0.618016 0.505894,-1.12346 1.12391,-1.12346 2.24827,0 4.49654,0 6.74525,0 0.5337,0 0.970527,-0.436827 0.970527,-0.970527l0 0c0,-0.534149 -0.436827,-0.970976 -0.970527,-0.970976 -2.1348,0 -4.2696,0 -6.4044,0 -0.618016,0 -1.12391,-0.505446 -1.12391,-1.12346l0 0c0,-0.618465 0.505894,-1.12391 1.12391,-1.12391 2.46265,0 4.92529,0 7.38749,0 0.531009,0 0.965145,-0.434136 0.965145,-0.965145l0 0c0,-0.530561 -0.434136,-0.964697 -0.965145,-0.964697z"/>
    <path id="_533997872" class="fil1" d="M3.90364 60.5674l6.28869 0c3.99558,0 7.40229,-3.26948 7.40229,-7.26505l0 -11.4198 -4.66786 0 0 11.1655c0,1.56836 -1.28312,2.85148 -2.85193,2.85148l-6.17119 0 0 4.66786z"/>
    <path id="_533997200" class="fil1" d="M28.7422 41.8829c5.1594,0 9.342,4.1826 9.342,9.342 0,5.15985 -4.1826,9.34245 -9.342,9.34245 -5.15985,0 -9.34245,-4.1826 -9.34245,-9.34245 0,-5.1594 4.1826,-9.342 9.34245,-9.342zm0 4.39428c2.73219,0 4.94772,2.21508 4.94772,4.94772 0,2.73264 -2.21553,4.94772 -4.94772,4.94772 -2.73264,0 -4.94772,-2.21508 -4.94772,-4.94772 0,-2.73264 2.21508,-4.94772 4.94772,-4.94772z"/>
    <path id="_533997176" class="fil1" d="M50.9563 41.9511l-3.96239 7.44669 -3.19458 -7.44669 -5.04145 0 5.44374 12.7025c-1.40063,1.40018 -2.0451,1.31676 -5.4729,1.31676l0 4.57413c5.8429,0 7.62967,-0.80055 10.1659,-4.99884l7.35923 -13.5946 -5.29754 0z"/>
    <path id="_533996768" class="fil1" d="M72.5577 60.5449l0 -10.5117c0,-4.44541 -3.63724,-8.0822 -8.0822,-8.0822l-1.4531 0c-4.44541,0 -8.0822,3.63679 -8.0822,8.0822l0 10.5117 4.54049 0 0 -10.3632c0,-2.15364 1.76211,-3.91619 3.91575,-3.91619l0.704126 0c2.15409,0 3.91619,1.76256 3.91619,3.91619l0 10.3632 4.54094 0z"/>
   </g>
  </g>
 </g>
</svg>
